<mxfile host="app.diagrams.net" modified="2024-01-15T20:12:26.785Z" agent="Mozilla/5.0 (Windows NT 10.0; Win64; x64) AppleWebKit/537.36 (KHTML, like Gecko) Chrome/120.0.0.0 Safari/537.36" etag="pg_V1774Cm8vMutBfZw6" version="22.1.18" type="device">
  <diagram name="Strona-1" id="uL_BOIQfOMwA9e9EQ-xa">
    <mxGraphModel dx="875" dy="489" grid="1" gridSize="10" guides="1" tooltips="1" connect="1" arrows="1" fold="1" page="1" pageScale="1" pageWidth="1169" pageHeight="827" background="#000000" math="0" shadow="0">
      <root>
        <mxCell id="0" />
        <mxCell id="1" parent="0" />
        <mxCell id="ib7rz0DjZjpNpzXAIk-6-12" value="" style="rounded=0;whiteSpace=wrap;html=1;fillColor=#000000;" vertex="1" parent="1">
          <mxGeometry x="130" y="120" width="770" height="370" as="geometry" />
        </mxCell>
        <mxCell id="ib7rz0DjZjpNpzXAIk-6-14" value="" style="verticalLabelPosition=bottom;html=1;verticalAlign=top;align=center;strokeColor=none;shape=mxgraph.azure.mysql_database;labelBackgroundColor=none;rounded=0;" vertex="1" parent="1">
          <mxGeometry x="150" y="240" width="80" height="120" as="geometry" />
        </mxCell>
        <mxCell id="ib7rz0DjZjpNpzXAIk-6-16" value="" style="aspect=fixed;html=1;dashed=0;whitespace=wrap;points=[[0.005,0.63,0],[0.1,0.2,0],[0.9,0.2,0],[0.5,0,0],[0.995,0.63,0],[0.72,0.99,0],[0.5,1,0],[0.28,0.99,0]];shape=mxgraph.kubernetes.icon2;kubernetesLabel=1;prIcon=api;labelBackgroundColor=none;rounded=0;" vertex="1" parent="1">
          <mxGeometry x="816.67" y="130" width="83.33" height="80" as="geometry" />
        </mxCell>
        <mxCell id="ib7rz0DjZjpNpzXAIk-6-17" value="" style="aspect=fixed;html=1;dashed=0;whitespace=wrap;points=[[0.005,0.63,0],[0.1,0.2,0],[0.9,0.2,0],[0.5,0,0],[0.995,0.63,0],[0.72,0.99,0],[0.5,1,0],[0.28,0.99,0]];shape=mxgraph.kubernetes.icon2;kubernetesLabel=1;prIcon=api;labelBackgroundColor=none;rounded=0;" vertex="1" parent="1">
          <mxGeometry x="819.92" y="390" width="83.33" height="80" as="geometry" />
        </mxCell>
        <mxCell id="ib7rz0DjZjpNpzXAIk-6-18" value="" style="shape=flexArrow;endArrow=classic;html=1;rounded=0;exitX=0.021;exitY=0.169;exitDx=0;exitDy=0;exitPerimeter=0;fillColor=default;entryX=0.995;entryY=0.23;entryDx=0;entryDy=0;entryPerimeter=0;" edge="1" parent="1">
          <mxGeometry width="50" height="50" relative="1" as="geometry">
            <mxPoint x="501.97540000000015" y="290.00000000000006" as="sourcePoint" />
            <mxPoint x="229.99999999999997" y="290.48999999999995" as="targetPoint" />
          </mxGeometry>
        </mxCell>
        <mxCell id="ib7rz0DjZjpNpzXAIk-6-19" value="" style="shape=flexArrow;endArrow=classic;html=1;rounded=0;exitX=0.021;exitY=0.169;exitDx=0;exitDy=0;exitPerimeter=0;fillColor=default;entryX=1;entryY=0.13;entryDx=0;entryDy=0;entryPerimeter=0;" edge="1" parent="1">
          <mxGeometry width="50" height="50" relative="1" as="geometry">
            <mxPoint x="230" y="320" as="sourcePoint" />
            <mxPoint x="502" y="320" as="targetPoint" />
          </mxGeometry>
        </mxCell>
        <mxCell id="ib7rz0DjZjpNpzXAIk-6-21" value="" style="endArrow=classic;html=1;rounded=0;" edge="1" parent="1">
          <mxGeometry relative="1" as="geometry">
            <mxPoint x="570" y="220" as="sourcePoint" />
            <mxPoint x="670" y="220" as="targetPoint" />
          </mxGeometry>
        </mxCell>
        <mxCell id="ib7rz0DjZjpNpzXAIk-6-23" value="" style="shape=flexArrow;endArrow=classic;html=1;rounded=0;exitX=1.009;exitY=0.53;exitDx=0;exitDy=0;exitPerimeter=0;fillColor=default;entryX=0.28;entryY=0.99;entryDx=0;entryDy=0;entryPerimeter=0;" edge="1" parent="1" source="ib7rz0DjZjpNpzXAIk-6-15" target="ib7rz0DjZjpNpzXAIk-6-16">
          <mxGeometry width="50" height="50" relative="1" as="geometry">
            <mxPoint x="875.1754000000001" y="270.00000000000006" as="sourcePoint" />
            <mxPoint x="603.1999999999999" y="270.48999999999995" as="targetPoint" />
          </mxGeometry>
        </mxCell>
        <mxCell id="ib7rz0DjZjpNpzXAIk-6-15" value="" style="aspect=fixed;pointerEvents=1;shadow=0;dashed=0;html=1;strokeColor=none;labelPosition=center;verticalLabelPosition=bottom;verticalAlign=top;align=center;shape=mxgraph.mscae.enterprise.application_server;labelBackgroundColor=none;rounded=0;" vertex="1" parent="1">
          <mxGeometry x="500" y="240" width="103.2" height="120" as="geometry" />
        </mxCell>
        <mxCell id="ib7rz0DjZjpNpzXAIk-6-24" value="" style="shape=flexArrow;endArrow=classic;html=1;rounded=0;fillColor=default;entryX=1.004;entryY=0.241;entryDx=0;entryDy=0;entryPerimeter=0;exitX=0.005;exitY=0.63;exitDx=0;exitDy=0;exitPerimeter=0;" edge="1" parent="1" source="ib7rz0DjZjpNpzXAIk-6-16" target="ib7rz0DjZjpNpzXAIk-6-15">
          <mxGeometry width="50" height="50" relative="1" as="geometry">
            <mxPoint x="774" y="200" as="sourcePoint" />
            <mxPoint x="585" y="275" as="targetPoint" />
          </mxGeometry>
        </mxCell>
        <mxCell id="ib7rz0DjZjpNpzXAIk-6-25" value="" style="shape=flexArrow;endArrow=classic;html=1;rounded=0;exitX=1;exitY=0.62;exitDx=0;exitDy=0;exitPerimeter=0;fillColor=default;entryX=0.1;entryY=0.2;entryDx=0;entryDy=0;entryPerimeter=0;" edge="1" parent="1" source="ib7rz0DjZjpNpzXAIk-6-15" target="ib7rz0DjZjpNpzXAIk-6-17">
          <mxGeometry width="50" height="50" relative="1" as="geometry">
            <mxPoint x="614" y="445" as="sourcePoint" />
            <mxPoint x="803" y="370" as="targetPoint" />
          </mxGeometry>
        </mxCell>
        <mxCell id="ib7rz0DjZjpNpzXAIk-6-26" value="" style="shape=flexArrow;endArrow=classic;html=1;rounded=0;fillColor=default;entryX=1;entryY=0.99;entryDx=0;entryDy=0;entryPerimeter=0;exitX=0.005;exitY=0.63;exitDx=0;exitDy=0;exitPerimeter=0;" edge="1" parent="1" source="ib7rz0DjZjpNpzXAIk-6-17" target="ib7rz0DjZjpNpzXAIk-6-15">
          <mxGeometry width="50" height="50" relative="1" as="geometry">
            <mxPoint x="770" y="430" as="sourcePoint" />
            <mxPoint x="595" y="350" as="targetPoint" />
          </mxGeometry>
        </mxCell>
        <mxCell id="ib7rz0DjZjpNpzXAIk-6-28" value="Dostarczone dane z giełdy Binance" style="text;html=1;strokeColor=none;fillColor=none;align=center;verticalAlign=middle;whiteSpace=wrap;rounded=0;fontColor=#FFFFFF;rotation=-22;" vertex="1" parent="1">
          <mxGeometry x="603.1999999999999" y="190" width="216.72" height="30" as="geometry" />
        </mxCell>
        <mxCell id="ib7rz0DjZjpNpzXAIk-6-29" value="Zapytanie do giełdy Binance" style="text;html=1;strokeColor=none;fillColor=none;align=center;verticalAlign=middle;whiteSpace=wrap;rounded=0;fontColor=#FFFFFF;rotation=-22;" vertex="1" parent="1">
          <mxGeometry x="620" y="250" width="216.72" height="30" as="geometry" />
        </mxCell>
        <mxCell id="ib7rz0DjZjpNpzXAIk-6-30" value="Zapytanie do platformy Coinmarketcap" style="text;html=1;strokeColor=none;fillColor=none;align=center;verticalAlign=middle;whiteSpace=wrap;rounded=0;fontColor=#FFFFFF;rotation=22;" vertex="1" parent="1">
          <mxGeometry x="610" y="330" width="216.72" height="30" as="geometry" />
        </mxCell>
        <mxCell id="ib7rz0DjZjpNpzXAIk-6-31" value="Dostarczone dane z platformy Coinmarketcap" style="text;html=1;strokeColor=none;fillColor=none;align=center;verticalAlign=middle;whiteSpace=wrap;rounded=0;fontColor=#FFFFFF;rotation=20;" vertex="1" parent="1">
          <mxGeometry x="583.33" y="410" width="270.05" height="30" as="geometry" />
        </mxCell>
        <mxCell id="ib7rz0DjZjpNpzXAIk-6-33" value="Dane z formularzy i pobrane przez API" style="text;html=1;strokeColor=none;fillColor=none;align=center;verticalAlign=middle;whiteSpace=wrap;rounded=0;fontColor=#FFFFFF;" vertex="1" parent="1">
          <mxGeometry x="250" y="260" width="240" height="30" as="geometry" />
        </mxCell>
        <mxCell id="ib7rz0DjZjpNpzXAIk-6-34" value="Wyniki" style="text;html=1;strokeColor=none;fillColor=none;align=center;verticalAlign=middle;whiteSpace=wrap;rounded=0;fontColor=#FFFFFF;" vertex="1" parent="1">
          <mxGeometry x="240" y="320" width="240" height="30" as="geometry" />
        </mxCell>
      </root>
    </mxGraphModel>
  </diagram>
</mxfile>
